<svg xmlns="http://www.w3.org/2000/svg" viewBox="3.264 66.195 544.127 218.24" width="544.127" height="218.24" role="img" aria-label="Orbit">
  <defs>
    <linearGradient id="orbitwm" x1="0" y1="0" x2="1" y2="0.25">
      <stop offset="0" stop-color="#7c5cff"/>
      <stop offset="1" stop-color="#4c8dff"/>
    </linearGradient>
  </defs>
  <path fill-rule="evenodd" fill="url(#orbitwm)" d="M11.264 184.275 C11.264 171.134 13.483 158.974 17.92 147.795 C22.357 136.616 28.587 126.888 36.608 118.611 C44.629 110.334 54.059 103.891 64.896 99.283 C75.733 94.675 87.552 92.371 100.352 92.371 C113.152 92.371 124.971 94.675 135.808 99.283 C146.645 103.891 156.075 110.334 164.096 118.611 C172.117 126.888 178.347 136.616 182.784 147.795 C187.221 158.974 189.44 171.134 189.44 184.275 C189.44 197.416 187.221 209.576 182.784 220.755 C178.347 231.934 172.117 241.662 164.096 249.939 C156.075 258.216 146.645 264.659 135.808 269.267 C124.971 273.875 113.152 276.179 100.352 276.179 C87.552 276.179 75.733 273.875 64.896 269.267 C54.059 264.659 44.629 258.216 36.608 249.939 C28.587 241.662 22.357 231.934 17.92 220.755 C13.483 209.576 11.264 197.416 11.264 184.275Z M26.112 184.275 C26.112 199.294 29.312 212.648 35.712 224.339 C42.112 236.03 50.901 245.246 62.08 251.987 C73.259 258.728 86.016 262.099 100.352 262.099 C114.688 262.099 127.445 258.728 138.624 251.987 C149.803 245.246 158.549 236.03 164.864 224.339 C171.179 212.648 174.336 199.294 174.336 184.275 C174.336 169.256 171.179 155.902 164.864 144.211 C158.549 132.52 149.803 123.304 138.624 116.563 C127.445 109.822 114.688 106.451 100.352 106.451 C86.016 106.451 73.259 109.822 62.08 116.563 C50.901 123.304 42.112 132.52 35.712 144.211 C29.312 155.902 26.112 169.256 26.112 184.275Z M234.286 156.115 L234.286 173.267 C237.187 167.294 240.985 162.515 245.678 158.931 C250.371 155.347 255.534 153.555 261.166 153.555 C264.921 153.555 268.462 154.11 271.79 155.219 C275.118 156.328 278.147 158.163 280.878 160.723 L273.454 171.731 C270.894 169.854 268.462 168.446 266.158 167.507 C263.854 166.568 261.166 166.099 258.094 166.099 C249.39 166.099 243.246 169.598 239.662 176.595 C236.078 183.592 234.286 192.126 234.286 202.195 L234.286 273.875 L220.974 273.875 L220.974 156.115Z M415.989 214.995 C415.989 227.624 413.472 238.547 408.437 247.763 C403.402 256.979 396.576 264.062 387.957 269.011 C379.338 273.96 369.738 276.435 359.157 276.435 C349.088 276.435 340.256 273.704 332.661 268.243 C325.066 262.782 319.306 255.443 315.381 246.227 L315.381 273.875 L302.069 273.875 L302.069 74.195 L315.381 74.195 L315.381 183.763 C319.306 174.547 325.066 167.208 332.661 161.747 C340.256 156.286 349.088 153.555 359.157 153.555 C369.738 153.555 379.338 156.03 387.957 160.979 C396.576 165.928 403.402 173.011 408.437 182.227 C413.472 191.443 415.989 202.366 415.989 214.995Z M402.677 214.995 C402.677 204.755 400.629 195.966 396.533 188.627 C392.437 181.288 386.976 175.699 380.149 171.859 C373.322 168.019 365.728 166.099 357.365 166.099 C350.026 166.099 343.157 168.232 336.757 172.499 C330.357 176.766 325.194 182.568 321.269 189.907 C317.344 197.246 315.381 205.608 315.381 214.995 C315.381 224.382 317.344 232.744 321.269 240.083 C325.194 247.422 330.357 253.224 336.757 257.491 C343.157 261.758 350.026 263.891 357.365 263.891 C365.728 263.891 373.322 261.928 380.149 258.003 C386.976 254.078 392.437 248.488 396.533 241.235 C400.629 233.982 402.677 225.235 402.677 214.995Z M446.224 102.867 C446.224 100.307 447.12 98.088 448.912 96.211 C450.704 94.334 452.965 93.395 455.696 93.395 C458.427 93.395 460.688 94.334 462.48 96.211 C464.272 98.088 465.168 100.307 465.168 102.867 C465.168 105.427 464.272 107.646 462.48 109.523 C460.688 111.4 458.427 112.339 455.696 112.339 C452.965 112.339 450.704 111.4 448.912 109.523 C447.12 107.646 446.224 105.427 446.224 102.867Z M449.04 156.115 L462.352 156.115 L462.352 273.875 L449.04 273.875Z M487.679 156.115 L506.879 156.115 L506.879 115.155 L520.191 115.155 L520.191 156.115 L539.391 156.115 L539.391 168.659 L520.191 168.659 L520.191 273.875 L506.879 273.875 L506.879 168.659 L487.679 168.659Z"/>
</svg>